<svg width="142" height="66" viewBox="0 0 142 66" fill="none" xmlns="http://www.w3.org/2000/svg">
<mask id="mask0_32_862" style="mask-type:luminance" maskUnits="userSpaceOnUse" x="76" y="0" width="66" height="66">
<path d="M76.0591 33C76.0591 14.7746 90.8205 0 109.03 0C127.239 0 142 14.7746 142 33C142 51.2254 127.239 66 109.03 66C90.8205 66 76.0591 51.2254 76.0591 33Z" fill="white"/>
</mask>
<g mask="url(#mask0_32_862)">
<path d="M75.3613 33.0001C75.3613 14.5818 90.279 -0.349121 108.681 -0.349121H110.076C128.478 -0.349121 143.396 14.5818 143.396 33.0001H140.605C140.605 14.9676 126.468 0.349292 109.03 0.349292C91.206 0.349292 76.7569 14.9676 76.7569 33.0001H75.3613ZM143.396 33.0001C143.396 51.9969 128.009 67.3969 109.03 67.3969C90.4353 67.3969 75.3613 52.3095 75.3613 33.6985L76.7569 33.0001C76.7569 50.4541 91.206 64.6033 109.03 64.6033C126.468 64.6033 140.605 50.4541 140.605 33.0001H143.396ZM109.03 67.3969C90.4353 67.3969 75.3613 52.3095 75.3613 33.6985V33.0001C75.3613 14.5818 90.279 -0.349121 108.681 -0.349121L109.03 0.349292C91.206 0.349292 76.7569 14.9676 76.7569 33.0001C76.7569 50.4541 91.206 64.6033 109.03 64.6033V67.3969ZM110.076 -0.349121C128.478 -0.349121 143.396 14.5818 143.396 33.0001C143.396 51.9969 128.009 67.3969 109.03 67.3969V64.6033C126.468 64.6033 140.605 50.4541 140.605 33.0001C140.605 14.9676 126.468 0.349292 109.03 0.349292L110.076 -0.349121Z" fill="#FCFF81"/>
</g>
<path d="M26.0108 25.7157C24.805 25.7157 23.6736 25.4847 22.6167 25.0229C21.5747 24.561 20.6518 23.9203 19.8479 23.1008C19.059 22.2665 18.4412 21.3129 17.9946 20.2401C17.548 19.1525 17.3247 17.9903 17.3247 16.7536C17.3247 15.5319 17.5406 14.3846 17.9723 13.3119C18.4188 12.2242 19.0366 11.2707 19.8256 10.4512C20.6294 9.63169 21.5524 8.99103 22.5944 8.52914C23.6513 8.05237 24.7901 7.81396 26.0108 7.81396C27.0826 7.81396 28.0576 7.97041 28.9359 8.2833C29.8142 8.59619 30.6627 9.09531 31.4814 9.7807C31.6154 9.885 31.6898 10.0116 31.7047 10.1606C31.7345 10.2947 31.7196 10.4288 31.6601 10.5629C31.6005 10.6821 31.5112 10.7715 31.3921 10.8311C31.3624 10.9503 31.2879 11.0397 31.1688 11.0993C31.0498 11.1589 30.9083 11.1813 30.7446 11.1663C30.5957 11.1514 30.4469 11.0844 30.298 10.9652C29.7174 10.4586 29.0848 10.0861 28.4 9.84774C27.7152 9.59446 26.9188 9.46781 26.0108 9.46781C25.0432 9.46781 24.1351 9.66151 23.2866 10.0489C22.453 10.4363 21.7161 10.9652 21.076 11.6357C20.4359 12.3062 19.9298 13.0809 19.5576 13.96C19.2004 14.8391 19.0217 15.7703 19.0217 16.7536C19.0217 17.7668 19.2004 18.7129 19.5576 19.592C19.9298 20.4711 20.4359 21.2458 21.076 21.9163C21.7161 22.5868 22.453 23.1157 23.2866 23.5031C24.1351 23.8756 25.0432 24.0618 26.0108 24.0618C26.8295 24.0618 27.6036 23.9277 28.333 23.6596C29.0625 23.3914 29.7547 23.004 30.4096 22.4974C30.5883 22.3484 30.7743 22.2888 30.9679 22.3186C31.1763 22.3484 31.3549 22.4378 31.5038 22.5868C31.6526 22.7358 31.7271 22.9295 31.7271 23.1679C31.7271 23.2871 31.7047 23.3988 31.6601 23.5031C31.6303 23.5925 31.5708 23.6893 31.4814 23.7936C30.7222 24.4939 29.8737 24.9931 28.9359 25.291C27.9981 25.5741 27.023 25.7157 26.0108 25.7157ZM51.5908 25.4922C51.3375 25.4922 51.1292 25.4177 50.9656 25.2687C50.8016 25.1048 50.72 24.8962 50.72 24.6429V18.2063C50.72 17.1485 50.4444 16.3141 49.8938 15.7032C49.3429 15.0775 48.6357 14.7646 47.7725 14.7646C46.8494 14.7646 46.0902 15.0775 45.495 15.7032C44.9144 16.3141 44.6314 17.1336 44.6464 18.1616H43.1057C43.1204 17.1634 43.3363 16.2843 43.7533 15.5244C44.1699 14.7646 44.7431 14.1761 45.4726 13.7589C46.2018 13.3417 47.028 13.1331 47.9512 13.1331C48.8293 13.1331 49.6035 13.3417 50.2734 13.7589C50.9579 14.1761 51.4865 14.7646 51.8588 15.5244C52.2457 16.2843 52.4394 17.1783 52.4394 18.2063V24.6429C52.4394 24.8962 52.3574 25.1048 52.1937 25.2687C52.0448 25.4177 51.8438 25.4922 51.5908 25.4922ZM35.9604 25.4922C35.6924 25.4922 35.4765 25.4177 35.3128 25.2687C35.1638 25.1048 35.0895 24.8962 35.0895 24.6429V14.1388C35.0895 13.8855 35.1638 13.6769 35.3128 13.513C35.4765 13.3491 35.6924 13.2672 35.9604 13.2672C36.2133 13.2672 36.4143 13.3491 36.5633 13.513C36.7269 13.6769 36.8089 13.8855 36.8089 14.1388V24.6429C36.8089 24.8962 36.7269 25.1048 36.5633 25.2687C36.4143 25.4177 36.2133 25.4922 35.9604 25.4922ZM43.7979 25.4922C43.5446 25.4922 43.3363 25.4177 43.1727 25.2687C43.0087 25.1048 42.9271 24.8962 42.9271 24.6429V18.2063C42.9271 17.1485 42.6515 16.3141 42.1009 15.7032C41.55 15.0775 40.8428 14.7646 39.9796 14.7646C39.0565 14.7646 38.2973 15.07 37.7021 15.6809C37.1065 16.2769 36.8089 17.0591 36.8089 18.0276H35.5808C35.6104 17.074 35.8187 16.2322 36.206 15.5021C36.6079 14.7571 37.1512 14.1761 37.836 13.7589C38.5206 13.3417 39.2948 13.1331 40.1583 13.1331C41.0364 13.1331 41.8106 13.3417 42.4805 13.7589C43.165 14.1761 43.6936 14.7646 44.0659 15.5244C44.4528 16.2843 44.6464 17.1783 44.6464 18.2063V24.6429C44.6464 24.8962 44.5645 25.1048 44.4008 25.2687C44.2518 25.4177 44.0509 25.4922 43.7979 25.4922ZM55.4758 30.8336C55.1482 30.8486 54.8209 30.8039 54.4933 30.6996C54.1807 30.6102 53.8681 30.4761 53.5555 30.2973C53.3172 30.1483 53.1685 29.9546 53.1089 29.7162C53.0346 29.4927 53.0792 29.2766 53.2429 29.0681C53.3918 28.8744 53.5705 28.7701 53.7788 28.7552C54.002 28.7552 54.2327 28.8148 54.471 28.934C54.6346 29.0383 54.7986 29.1128 54.9622 29.1575C55.1258 29.2022 55.3121 29.2245 55.5204 29.2245C56.0117 29.2096 56.4806 28.9787 56.9272 28.5317C57.3888 28.0847 57.8053 27.4366 58.1776 26.5873L63.7376 13.7365C63.8269 13.513 63.9759 13.364 64.1842 13.2895C64.4075 13.2001 64.6308 13.2076 64.8541 13.3119C65.0623 13.4013 65.1963 13.5503 65.256 13.7589C65.3303 13.9674 65.3156 14.1909 65.2113 14.4293L59.629 27.2578C59.1528 28.3305 58.5499 29.1947 57.8203 29.8503C57.1058 30.5058 56.3243 30.8336 55.4758 30.8336ZM60.1426 25.1123C59.9193 25.2166 59.711 25.2389 59.5174 25.1793C59.3237 25.1048 59.1674 24.9558 59.0485 24.7323L54.069 14.407C53.9647 14.1835 53.9501 13.9749 54.0244 13.7812C54.0987 13.5875 54.2477 13.4385 54.471 13.3342C54.6943 13.2299 54.9025 13.215 55.0962 13.2895C55.2898 13.3491 55.4384 13.4907 55.5428 13.7142L60.4552 23.9948C60.5595 24.2183 60.5892 24.4343 60.5445 24.6429C60.4999 24.8515 60.3659 25.0079 60.1426 25.1123ZM73.0053 25.6039C71.8292 25.6039 70.787 25.3432 69.8792 24.8217C68.971 24.2853 68.2565 23.5478 67.7356 22.6091C67.2293 21.6705 66.9764 20.5977 66.9764 19.3909C66.9764 18.1691 67.2443 17.0889 67.7802 16.1502C68.3161 15.2116 69.053 14.4815 69.9908 13.96C70.9287 13.4236 71.9928 13.1554 73.1839 13.1554C74.3897 13.1554 75.4538 13.4236 76.377 13.96C77.3148 14.4815 78.044 15.2116 78.5653 16.1502C79.1012 17.0889 79.3764 18.1691 79.3914 19.3909L78.3866 19.9272C78.3866 21.0298 78.1557 22.0132 77.6944 22.8773C77.2328 23.7266 76.5926 24.3971 75.7741 24.8888C74.9702 25.3655 74.0471 25.6039 73.0053 25.6039ZM73.2286 30.3196C72.0524 30.3196 71.018 30.0961 70.1248 29.6491C69.2316 29.2171 68.4948 28.6211 67.9142 27.8612C67.7502 27.6824 67.6759 27.4887 67.6909 27.2801C67.7206 27.0715 67.8322 26.9002 68.0259 26.7661C68.2191 26.632 68.4351 26.5873 68.6734 26.632C68.9113 26.6767 69.0977 26.7884 69.2316 26.9672C69.6632 27.5036 70.2141 27.9357 70.884 28.2635C71.5685 28.5913 72.3577 28.7552 73.2509 28.7552C74.0844 28.7552 74.8363 28.554 75.5061 28.1517C76.176 27.7495 76.7043 27.1833 77.0912 26.4532C77.4935 25.7231 77.6944 24.8664 77.6944 23.883V20.486L78.342 19.1897L79.3914 19.3909V23.9501C79.3914 25.1569 79.1235 26.2371 78.5876 27.1907C78.0517 28.1592 77.3221 28.9191 76.3993 29.4703C75.4761 30.0365 74.4193 30.3196 73.2286 30.3196ZM73.1839 24.0395C74.0621 24.0395 74.8363 23.8458 75.5061 23.4584C76.1907 23.0561 76.7266 22.5048 77.1139 21.8046C77.5008 21.1043 77.6944 20.2997 77.6944 19.3909C77.6944 18.482 77.5008 17.6774 77.1139 16.9771C76.7266 16.262 76.1907 15.7107 75.5061 15.3233C74.8363 14.921 74.0621 14.7199 73.1839 14.7199C72.3054 14.7199 71.5239 14.921 70.8393 15.3233C70.1545 15.7107 69.6186 16.262 69.2316 16.9771C68.8444 17.6774 68.6511 18.482 68.6511 19.3909C68.6511 20.2997 68.8444 21.1043 69.2316 21.8046C69.6186 22.5048 70.1545 23.0561 70.8393 23.4584C71.5239 23.8458 72.3054 24.0395 73.1839 24.0395ZM88.0496 25.6263C86.9928 25.6263 86.0473 25.4102 85.2138 24.9782C84.3803 24.5312 83.7177 23.883 83.2265 23.0338C82.7502 22.1845 82.5119 21.149 82.5119 19.9272V14.1164C82.5119 13.878 82.5939 13.6769 82.7576 13.513C82.9212 13.3491 83.1222 13.2672 83.3605 13.2672C83.6134 13.2672 83.822 13.3491 83.9857 13.513C84.1493 13.6769 84.2313 13.878 84.2313 14.1164V19.9272C84.2313 20.851 84.4026 21.6109 84.7449 22.2069C85.1021 22.8028 85.5784 23.2498 86.1739 23.5478C86.7842 23.8458 87.469 23.9948 88.2282 23.9948C88.9578 23.9948 89.6126 23.8533 90.1932 23.5702C90.7888 23.2871 91.2577 22.8997 91.5999 22.408C91.9422 21.9163 92.1135 21.3576 92.1135 20.7318H93.3416C93.297 21.6705 93.0363 22.5123 92.5601 23.2573C92.0985 23.9874 91.4733 24.5684 90.6844 25.0005C89.8956 25.4177 89.0171 25.6263 88.0496 25.6263ZM92.962 25.4922C92.7091 25.4922 92.5004 25.4177 92.3368 25.2687C92.1878 25.1048 92.1135 24.8888 92.1135 24.6206V14.1164C92.1135 13.8632 92.1878 13.662 92.3368 13.513C92.5004 13.3491 92.7091 13.2672 92.962 13.2672C93.215 13.2672 93.4236 13.3491 93.5873 13.513C93.7509 13.662 93.8329 13.8632 93.8329 14.1164V24.6206C93.8329 24.8888 93.7509 25.1048 93.5873 25.2687C93.4236 25.4177 93.215 25.4922 92.962 25.4922Z" fill="black"/>
<path d="M108.297 25.4918C108.044 25.4918 107.835 25.4099 107.672 25.246C107.508 25.0821 107.426 24.8735 107.426 24.6202V18.653H102.916V18.4295C101.948 18.4295 101.055 18.2134 100.236 17.7814C99.4172 17.3493 98.7624 16.7607 98.2711 16.0158C97.7799 15.2559 97.5343 14.3917 97.5343 13.4233C97.5343 12.3654 97.7722 11.4342 98.2488 10.6296C98.74 9.82505 99.4099 9.19183 100.258 8.72993C101.107 8.26804 102.082 8.03711 103.184 8.03711H108.297C108.55 8.03711 108.758 8.11907 108.922 8.28295C109.086 8.44683 109.168 8.65545 109.168 8.90873V24.6202C109.168 24.8735 109.086 25.0821 108.922 25.246C108.758 25.4099 108.55 25.4918 108.297 25.4918ZM98.4274 25.4918C98.0255 25.4918 97.7499 25.3577 97.6012 25.0896C97.4673 24.8214 97.5119 24.5085 97.7352 24.1509L101.844 17.7143L103.585 18.1836L99.1866 25.0449C99.0973 25.1939 98.993 25.3056 98.874 25.3801C98.7547 25.4546 98.6061 25.4918 98.4274 25.4918ZM103.184 17.0215H107.426V9.7133H103.184C102.409 9.7133 101.724 9.86231 101.129 10.1603C100.549 10.4583 100.087 10.8904 99.7449 11.4565C99.4172 12.0078 99.2536 12.6634 99.2536 13.4233C99.2536 14.1534 99.4172 14.7866 99.7449 15.323C100.087 15.8593 100.549 16.2765 101.129 16.5745C101.724 16.8725 102.409 17.0215 103.184 17.0215Z" fill="#FF0000"/>
<path d="M53.6409 49.0148C53.4919 49.1786 53.2909 49.2533 53.038 49.2383C52.7847 49.2383 52.5837 49.1489 52.4351 48.9701L45.2004 40.3657L51.8546 32.0518C52.0182 31.873 52.2191 31.7836 52.4574 31.7836C52.6954 31.7687 52.8963 31.8432 53.0603 32.0071C53.239 32.1859 53.3206 32.3796 53.3059 32.5882C53.3059 32.7819 53.2313 32.9681 53.0827 33.1469L47.2994 40.2763L53.7302 47.8527C53.8938 48.0465 53.9608 48.2476 53.9312 48.4561C53.9162 48.6499 53.8195 48.836 53.6409 49.0148ZM42.387 49.2383C42.1337 49.2383 41.9254 49.1563 41.7617 48.9925C41.5978 48.8287 41.5161 48.6199 41.5161 48.3667V32.6552C41.5161 32.4019 41.5978 32.1933 41.7617 32.0294C41.9254 31.8656 42.1337 31.7836 42.387 31.7836C42.6399 31.7836 42.8482 31.8656 43.0122 32.0294C43.1758 32.1933 43.2578 32.4019 43.2578 32.6552V39.6282H46.7858V41.1926H43.2578V48.3667C43.2578 48.6199 43.1758 48.8287 43.0122 48.9925C42.8482 49.1563 42.6399 49.2383 42.387 49.2383ZM57.493 54.468C57.2251 54.468 57.0095 54.386 56.8455 54.2222C56.6969 54.0731 56.6222 53.8646 56.6222 53.5964V43.0476C56.6372 41.8854 56.9125 40.8424 57.4484 39.9187C57.9993 38.98 58.7361 38.2425 59.659 37.7061C60.5968 37.1698 61.6463 36.9016 62.8074 36.9016C63.9985 36.9016 65.0626 37.1771 66.0005 37.7285C66.9383 38.2649 67.6752 39.0024 68.2111 39.9411C68.762 40.8797 69.0372 41.9452 69.0372 43.137C69.0372 44.3142 68.7693 45.3719 68.2334 46.3106C67.7125 47.2493 66.998 47.9941 66.0898 48.5455C65.182 49.0819 64.1548 49.3501 63.0084 49.3501C62.0112 49.3501 61.103 49.1416 60.2842 48.7243C59.4803 48.2923 58.8328 47.7259 58.3415 47.0258V53.5964C58.3415 53.8646 58.2599 54.0731 58.0959 54.2222C57.9473 54.386 57.7463 54.468 57.493 54.468ZM62.8074 47.7856C63.6709 47.7856 64.4451 47.5845 65.1296 47.1822C65.8145 46.7799 66.3504 46.2285 66.7373 45.5284C67.1393 44.8132 67.3402 44.016 67.3402 43.137C67.3402 42.243 67.1393 41.4458 66.7373 40.7456C66.3504 40.0455 65.8145 39.4941 65.1296 39.0918C64.4451 38.6745 63.6709 38.466 62.8074 38.466C61.9589 38.466 61.1924 38.6745 60.5075 39.0918C59.8229 39.4941 59.287 40.0455 58.8998 40.7456C58.5128 41.4458 58.3192 42.243 58.3192 43.137C58.3192 44.016 58.5128 44.8132 58.8998 45.5284C59.287 46.2285 59.8229 46.7799 60.5075 47.1822C61.1924 47.5845 61.9589 47.7856 62.8074 47.7856ZM77.791 49.3501C76.6449 49.3501 75.6177 49.0819 74.7096 48.5455C73.8017 47.9941 73.0795 47.2493 72.5436 46.3106C72.0227 45.3719 71.7621 44.3142 71.7621 43.137C71.7621 41.9452 72.0301 40.8797 72.566 39.9411C73.1169 39.0024 73.8611 38.2649 74.7989 37.7285C75.7367 37.1771 76.7939 36.9016 77.9696 36.9016C79.1458 36.9016 80.1952 37.1771 81.1181 37.7285C82.0559 38.2649 82.7928 39.0024 83.3287 39.9411C83.8796 40.8797 84.1625 41.9452 84.1772 43.137L83.485 43.6734C83.485 44.7461 83.232 45.7145 82.7258 46.5788C82.2345 47.428 81.5573 48.1059 80.6938 48.6126C79.8453 49.1042 78.8778 49.3501 77.791 49.3501ZM77.9696 47.7856C78.8332 47.7856 79.5997 47.5845 80.2696 47.1822C80.9544 46.7799 81.4903 46.2285 81.8773 45.5284C82.2792 44.8132 82.4801 44.016 82.4801 43.137C82.4801 42.243 82.2792 41.4458 81.8773 40.7456C81.4903 40.0455 80.9544 39.4941 80.2696 39.0918C79.5997 38.6745 78.8332 38.466 77.9696 38.466C77.1211 38.466 76.3546 38.6745 75.6697 39.0918C74.9852 39.4941 74.4416 40.0455 74.0397 40.7456C73.6378 41.4458 73.4368 42.243 73.4368 43.137C73.4368 44.016 73.6378 44.8132 74.0397 45.5284C74.4416 46.2285 74.9852 46.7799 75.6697 47.1822C76.3546 47.5845 77.1211 47.7856 77.9696 47.7856ZM83.3063 49.2383C83.0534 49.2383 82.8451 49.164 82.6811 49.0148C82.5175 48.8511 82.4355 48.6422 82.4355 48.3891V44.5674L82.8597 42.8018L84.1772 43.137V48.3891C84.1772 48.6422 84.0955 48.8511 83.9315 49.0148C83.7679 49.164 83.5596 49.2383 83.3063 49.2383ZM92.9697 49.3501C91.7935 49.3501 90.7441 49.0819 89.8212 48.5455C88.9131 47.9941 88.1912 47.2493 87.6553 46.3106C87.1341 45.3719 86.8738 44.3142 86.8738 43.137C86.8738 41.9452 87.1267 40.8797 87.633 39.9411C88.1389 39.0024 88.8311 38.2649 89.7096 37.7285C90.5878 37.1771 91.5999 36.9016 92.7464 36.9016C93.6542 36.9016 94.488 37.0804 95.2472 37.438C96.0211 37.7955 96.6986 38.3319 97.2792 39.0471C97.4428 39.2259 97.5025 39.4197 97.4578 39.6282C97.4132 39.822 97.2865 39.9931 97.0782 40.1422C96.9143 40.2613 96.7283 40.306 96.52 40.2763C96.3264 40.2316 96.1551 40.1199 96.0064 39.9411C95.1429 38.9577 94.0561 38.466 92.7464 38.466C91.9125 38.466 91.1756 38.6672 90.5358 39.0694C89.9105 39.4717 89.4193 40.0231 89.062 40.7233C88.7194 41.4234 88.5485 42.228 88.5485 43.137C88.5485 44.031 88.7344 44.8282 89.1067 45.5284C89.4786 46.2285 89.9999 46.7799 90.6697 47.1822C91.3396 47.5845 92.1061 47.7856 92.9697 47.7856C93.5502 47.7856 94.0784 47.7113 94.555 47.5621C95.0463 47.3984 95.4779 47.1525 95.8501 46.8246C96.0288 46.6755 96.2147 46.5938 96.4084 46.5788C96.6016 46.5638 96.7803 46.6235 96.9443 46.7576C97.1229 46.9213 97.2195 47.1078 97.2345 47.3163C97.2642 47.5248 97.1972 47.7036 97.0336 47.8527C95.9468 48.8511 94.592 49.3501 92.9697 49.3501ZM106.361 49.3501C105.17 49.3501 104.106 49.0819 103.168 48.5455C102.23 48.0091 101.493 47.2716 100.957 46.3329C100.421 45.3943 100.153 44.3288 100.153 43.137C100.153 41.9301 100.421 40.8574 100.957 39.9187C101.493 38.98 102.23 38.2425 103.168 37.7061C104.106 37.1698 105.17 36.9016 106.361 36.9016C107.552 36.9016 108.609 37.1698 109.532 37.7061C110.469 38.2425 111.206 38.98 111.742 39.9187C112.278 40.8574 112.554 41.9301 112.568 43.137C112.568 44.3288 112.293 45.3943 111.742 46.3329C111.206 47.2716 110.469 48.0091 109.532 48.5455C108.609 49.0819 107.552 49.3501 106.361 49.3501ZM106.361 47.7856C107.224 47.7856 107.999 47.5845 108.683 47.1822C109.368 46.7799 109.904 46.2285 110.291 45.5284C110.678 44.8282 110.871 44.031 110.871 43.137C110.871 42.243 110.678 41.4458 110.291 40.7456C109.904 40.0305 109.368 39.4717 108.683 39.0694C107.999 38.6672 107.224 38.466 106.361 38.466C105.498 38.466 104.724 38.6672 104.039 39.0694C103.354 39.4717 102.811 40.0305 102.409 40.7456C102.022 41.4458 101.828 42.243 101.828 43.137C101.828 44.031 102.022 44.8282 102.409 45.5284C102.811 46.2285 103.354 46.7799 104.039 47.1822C104.724 47.5845 105.498 47.7856 106.361 47.7856Z" fill="black"/>
<path d="M118.086 49.2379C117.848 49.2379 117.64 49.1559 117.461 48.9921C117.297 48.8133 117.216 48.6048 117.216 48.3663V31.7832H118.957V48.3663C118.957 48.6048 118.876 48.8133 118.712 48.9921C118.548 49.1559 118.34 49.2379 118.086 49.2379ZM111.923 33.37C111.686 33.37 111.492 33.2955 111.343 33.1465C111.194 32.9975 111.12 32.8113 111.12 32.5878C111.12 32.3494 111.194 32.1557 111.343 32.0067C111.492 31.8577 111.686 31.7832 111.923 31.7832H124.272C124.51 31.7832 124.703 31.8577 124.852 32.0067C125.001 32.1557 125.075 32.3494 125.075 32.5878C125.075 32.8113 125.001 32.9975 124.852 33.1465C124.703 33.2955 124.51 33.37 124.272 33.37H111.923ZM129.003 49.4614C128.035 49.4614 127.179 49.2676 126.435 48.8803C125.706 48.4931 125.125 47.9567 124.693 47.2712C124.276 46.5857 124.068 45.7962 124.068 44.9022V37.8622C124.083 37.609 124.165 37.4079 124.314 37.2588C124.477 37.095 124.686 37.0129 124.939 37.0129C125.192 37.0129 125.393 37.095 125.542 37.2588C125.706 37.4079 125.788 37.6163 125.788 37.8845V41.0581H129.092C129.985 41.0581 130.774 41.2296 131.459 41.5722C132.159 41.9001 132.702 42.3767 133.089 43.0025C133.476 43.6133 133.67 44.3435 133.67 45.1927C133.67 46.057 133.469 46.8092 133.067 47.45C132.68 48.0908 132.129 48.5898 131.414 48.9474C130.715 49.29 129.911 49.4614 129.003 49.4614ZM129.003 47.8746C129.866 47.8746 130.581 47.6511 131.147 47.2042C131.712 46.7572 131.995 46.0867 131.995 45.1927C131.995 44.2988 131.719 43.6356 131.169 43.2036C130.633 42.7717 129.941 42.5555 129.092 42.5555H125.788V44.9022C125.788 45.7665 126.085 46.4816 126.681 47.0477C127.291 47.5991 128.065 47.8746 129.003 47.8746ZM136.461 49.2379C136.208 49.2379 135.999 49.1636 135.836 49.0144C135.687 48.8507 135.612 48.6345 135.612 48.3663V37.8845C135.612 37.6163 135.687 37.4079 135.836 37.2588C135.999 37.095 136.208 37.0129 136.461 37.0129C136.729 37.0129 136.937 37.095 137.086 37.2588C137.25 37.4079 137.332 37.6163 137.332 37.8845V48.3663C137.332 48.6345 137.25 48.8507 137.086 49.0144C136.937 49.1636 136.729 49.2379 136.461 49.2379Z" fill="#FF0000"/>
</svg>
